<?xml version="1.0" encoding="UTF-8" standalone="no"?>
<!DOCTYPE svg PUBLIC "-//W3C//DTD SVG 1.1//EN" "http://www.w3.org/Graphics/SVG/1.1/DTD/svg11.dtd">
<svg width="100%" height="100%" viewBox="0 0 640 640" version="1.1" xmlns="http://www.w3.org/2000/svg" xmlns:xlink="http://www.w3.org/1999/xlink" xml:space="preserve" xmlns:serif="http://www.serif.com/" style="fill-rule:evenodd;clip-rule:evenodd;stroke-linejoin:round;stroke-miterlimit:2;">
    <g transform="matrix(1.18519,0,0,1.18519,-671.367,-1222.13)">
        <circle cx="836.464" cy="1301.17" r="270" style="fill:rgb(0,147,255);"/>
    </g>
    <g transform="matrix(-4.90038,0,0,5.24802,905.255,-328.526)">
        <path d="M67.5,108.5C67.5,108.4 67.5,108.2 67.6,108C67.6,107.8 67.7,107.5 67.8,107.2C67.9,106.9 68,106.6 68.1,106.2C68.3,105.5 68.7,104.6 69.2,103.6C69.7,102.6 70.3,101.5 71,100.4C72.5,98.2 74.6,95.8 77.3,93.7C78.7,92.7 80.2,91.7 81.8,90.9C83.4,90.1 85.2,89.4 86.9,88.8L88.3,88.4C88.7,88.3 89.2,88.2 89.7,88.1C90.1,88 90.6,87.9 91.1,87.9L91.8,87.8L96.3,87.8C96.7,87.8 97.2,87.8 97.6,87.9C98,87.9 98.5,88 98.9,88C99.1,88 99.4,88.1 99.6,88.1L99.5,88.1C99.1,87.9 98.6,87.7 98.1,87.4C97.2,87 96.2,86.6 95.3,86.1L95.3,86L94.1,85.4C93.9,85.3 93.8,85.3 93.7,85.3L93.4,85.2C93.2,85.1 93,85 92.8,84.9C92.6,84.8 92.3,84.7 92.1,84.6C91.9,84.5 91.6,84.4 91.4,84.3C91.2,84.2 90.9,84.1 90.7,84C90.6,84 90.5,83.9 90.3,83.9L89.9,83.8C89.7,83.7 89.4,83.6 89.2,83.5C89.1,83.5 89,83.4 88.9,83.4C88.8,83.4 88.7,83.3 88.6,83.3C88.4,83.2 88.1,83.1 87.9,83C87.7,82.9 87.4,82.8 87.2,82.8C86.3,82.5 85.4,82.2 84.6,81.9C82.8,81.3 81.4,80.8 80.3,80.5C79.8,80.3 79.3,80.2 79,80C78.8,79.9 78.7,79.9 78.6,79.9L78.5,79.9L78.9,79.5C79,79.4 79.2,79.3 79.4,79.1C79.6,78.9 79.8,78.8 80.1,78.6C80.3,78.4 80.6,78.2 80.9,78.1C81.2,77.9 81.6,77.7 81.9,77.5C82.6,77.1 83.5,76.8 84.5,76.4C85.5,76.1 86.6,75.8 87.7,75.7C88,75.7 88.3,75.6 88.6,75.6C88.9,75.6 89.2,75.6 89.5,75.5L91.4,75.5C91.7,75.5 92.1,75.5 92.4,75.6C92.7,75.6 93.1,75.7 93.4,75.7C94.1,75.8 94.7,75.9 95.4,76.1C95.8,76.2 96.1,76.3 96.5,76.4L97,76.6C97.2,76.7 97.4,76.7 97.5,76.8L98.4,77.1L98.8,77.3L98.9,77.3L99.1,77.4L99.2,77.4L99.4,77.5C99.7,77.6 100,77.8 100.3,77.9C100.6,78 100.9,78.2 101.2,78.4C101.5,78.6 101.8,78.7 102.1,78.9L102.5,79.2C102.6,79.3 102.8,79.4 102.9,79.5C103.3,79.8 103.6,80 104,80.3C104.1,79.9 104.2,79.4 104.3,79C104.3,78.8 104.4,78.7 104.4,78.5L104.5,78C104.6,77.7 104.7,77.3 104.8,77C104.9,76.7 105,76.3 105.2,76C105.3,75.7 105.5,75.4 105.6,75L105.7,74.8L105.7,74.7L105.8,74.5L105.9,74.4L106.5,73.2C106.6,73.1 106.7,72.9 106.8,72.8L107.1,72.3C107.3,72 107.5,71.7 107.7,71.4C108.1,70.8 108.5,70.3 108.9,69.8C109.1,69.5 109.3,69.3 109.6,69C109.8,68.7 110,68.5 110.3,68.3C110.8,67.8 111.2,67.4 111.7,67C111.9,66.8 112.2,66.6 112.4,66.4C112.6,66.2 112.9,66 113.1,65.9C114.1,65.2 115,64.7 116,64.2C116.9,63.8 117.8,63.4 118.6,63.2C119,63.1 119.4,63 119.7,62.9C120.1,62.8 120.4,62.8 120.7,62.7C121,62.7 121.3,62.6 121.5,62.6L122.6,62.6L122.5,62.7C122.5,62.8 122.4,62.9 122.3,63C122.2,63.3 121.9,63.7 121.7,64.2C121.2,65.2 120.4,66.5 119.5,68.2C119.1,69 118.7,69.8 118.2,70.7C118.1,70.9 118,71.1 117.9,71.3C117.8,71.5 117.7,71.7 117.6,72C117.5,72.1 117.5,72.2 117.4,72.3C117.3,72.4 117.3,72.5 117.2,72.6C117.1,72.8 117,73 116.9,73.3L116.7,73.6C116.6,73.7 116.6,73.8 116.5,73.9C116.4,74.1 116.3,74.4 116.2,74.6C116.1,74.8 116,75.1 115.9,75.3C115.8,75.5 115.7,75.8 115.6,76C115.5,76.2 115.4,76.4 115.3,76.6L115.1,76.9C115,77 115,77.1 114.9,77.3L114.2,78.7C113.8,79.6 113.4,80.6 113,81.5C112.8,82 112.6,82.4 112.4,82.9L112.4,83C112.6,82.8 112.7,82.6 112.9,82.4C113.2,82.1 113.4,81.7 113.7,81.4C114,81.1 114.3,80.8 114.6,80.4C114.9,80.1 115.2,79.8 115.6,79.5C115.9,79.2 116.3,78.9 116.6,78.6L116.7,78.5C116.6,78.5 116.8,78.4 116.8,78.4L116.9,78.4L117.1,78.2L117.6,77.8L117.8,77.6L119.9,76.2C120.3,76 120.7,75.7 121.1,75.5L122.3,74.8C124,74 125.7,73.3 127.5,72.8C129.3,72.3 131,72 132.7,71.8C136.1,71.5 139.3,71.8 141.9,72.5C143.2,72.8 144.4,73.2 145.4,73.6C146.4,74 147.3,74.4 147.9,74.8C148.2,75 148.5,75.2 148.8,75.3C149.1,75.5 149.3,75.6 149.4,75.7C149.6,75.8 149.7,75.9 149.8,76L149.9,76.1C149.9,76.1 149.7,76.2 149.3,76.2C149.1,76.2 148.8,76.3 148.6,76.4C148.3,76.5 148,76.5 147.6,76.6C146.9,76.8 146,76.9 145,77.2C144,77.4 142.9,77.7 141.8,77.9C139.5,78.5 136.9,79.1 134.3,80C131.7,80.9 129,81.9 126.5,83.2C125.9,83.5 125.2,83.8 124.6,84.2C124.3,84.4 124,84.5 123.7,84.7L123.3,84.9C123.2,84.9 123.1,85 123.1,85L120.1,87C119.8,87.2 119.5,87.4 119.3,87.6C119.2,87.7 119,87.8 118.9,87.9C119.3,87.8 119.8,87.6 120.3,87.5C120.5,87.5 120.7,87.4 120.9,87.4C121.1,87.4 121.3,87.3 121.5,87.3C121.9,87.2 122.3,87.2 122.7,87.1C123.5,87 124.3,87 125.2,87C125.6,87 126,87 126.4,87.1L127.7,87.1C128,87.2 128.4,87.2 128.7,87.3L129,87.3C129.1,87.3 129.2,87.4 129.3,87.4L130.7,87.8L131.3,88C131.7,88.1 132.1,88.3 132.5,88.4C132.9,88.5 133.3,88.7 133.6,88.9C134,89.1 134.3,89.3 134.7,89.5C135.1,89.7 135.4,89.9 135.7,90.1C136,90.3 136.4,90.6 136.7,90.8C137.4,91.3 137.9,91.8 138.5,92.3C138.8,92.6 139,92.8 139.3,93.1C139.6,93.4 139.8,93.6 140,93.9C140.2,94.2 140.5,94.5 140.7,94.8C140.9,95.1 141.1,95.4 141.3,95.7C141.5,96 141.7,96.3 141.8,96.6C142,96.9 142.1,97.2 142.3,97.5C142.4,97.8 142.6,98.1 142.7,98.4C142.8,98.7 142.9,99 143,99.3C143.1,99.6 143.2,99.8 143.3,100.1C143.4,100.4 143.5,100.6 143.5,100.9C143.6,101.2 143.6,101.4 143.7,101.7C143.7,102 143.8,102.2 143.8,102.4C144,103.3 144,104.2 144,104.8C144,105.1 144,105.4 143.9,105.7C143.9,106 143.8,106.2 143.8,106.4C143.8,106.6 143.7,106.7 143.7,106.8L143.7,106.9L143.3,106.5C143,106.3 142.7,105.9 142.2,105.5C142,105.3 141.7,105.1 141.4,104.8C141.1,104.5 140.8,104.3 140.5,104C140.3,103.9 140.2,103.7 140,103.6C139.8,103.5 139.7,103.3 139.5,103.2C139.3,103.1 139.2,102.9 139,102.8C138.8,102.7 138.6,102.5 138.4,102.4C138.2,102.3 138,102.1 137.8,102C137.6,101.9 137.4,101.7 137.2,101.6C137,101.5 136.8,101.3 136.6,101.2C136.4,101.1 136.2,100.9 136,100.8C135.6,100.5 135.1,100.3 134.7,100C134.2,99.7 133.8,99.5 133.3,99.2C132.8,99 132.4,98.7 131.9,98.5C131.7,98.4 131.4,98.3 131.2,98.2C131,98.1 130.7,98 130.5,97.9C130.3,97.8 130,97.7 129.8,97.6C129.7,97.6 129.6,97.5 129.4,97.5C129.3,97.4 129.2,97.4 129,97.4C128.7,97.3 128.5,97.2 128.2,97.2L128,97.1L127.8,97.1C127.7,97.1 127.6,97 127.5,97L127.2,96.9C127.1,96.9 127.1,96.9 127,96.8L126.7,96.7C126.4,96.6 126,96.5 125.7,96.5L125.5,96.5L125.1,96.4C124.8,96.4 124.6,96.3 124.3,96.2C124,96.2 123.8,96.1 123.5,96.1L123.1,96L122.7,96C122.4,96 122.2,96 121.9,95.9L117.9,95.9C116.9,95.9 115.9,96.1 114.9,96.2C114.4,96.3 114,96.3 113.6,96.4C119.1,106.6 131,132.5 134.9,169.9C139.2,147.7 147.2,132.6 150.9,126.4C150.6,126.3 150.3,126.3 150,126.2C149.4,126.1 148.7,126 148,125.9C147.8,125.9 147.7,125.9 147.5,125.8L143.8,125.8C143.6,125.8 143.4,125.9 143.3,125.9L142.8,125.9C142.6,125.9 142.3,126 142.1,126L141.8,126L141.6,126.1L141.2,126.1C141,126.2 140.9,126.2 140.7,126.2C140.6,126.2 140.5,126.2 140.4,126.3C140.3,126.3 140.2,126.4 140.1,126.4C139.9,126.5 139.8,126.5 139.6,126.6C139.4,126.7 139.3,126.7 139.1,126.8C138.9,126.9 138.8,126.9 138.6,127C138.3,127.1 137.9,127.3 137.6,127.4C137.3,127.6 137,127.7 136.6,127.9C136.3,128.1 136,128.2 135.7,128.4C135.5,128.5 135.4,128.6 135.2,128.7C135.1,128.8 134.9,128.9 134.8,129C134.7,129.1 134.5,129.2 134.4,129.3C134.3,129.4 134.1,129.5 134,129.6C133.9,129.7 133.7,129.8 133.6,129.9C133.5,130 133.4,130.1 133.2,130.2C133.1,130.3 133,130.4 132.8,130.5C132.7,130.6 132.6,130.7 132.5,130.8C132.3,131 132.1,131.1 131.9,131.3C131.7,131.5 131.5,131.6 131.4,131.7C131.1,132 130.8,132.2 130.6,132.4C130.5,132.5 130.4,132.5 130.4,132.6C130.3,132.6 130.3,132.7 130.3,132.7L130.3,131.2C130.3,130.7 130.4,130.2 130.5,129.5C130.5,129.3 130.6,129.2 130.6,129C130.6,128.8 130.7,128.7 130.8,128.5C130.9,128.3 130.9,128.1 131,128C131.1,127.8 131.1,127.6 131.2,127.5L132.1,125.7C132.2,125.5 132.4,125.3 132.5,125.1C132.6,124.9 132.8,124.7 132.9,124.5C133.1,124.3 133.2,124.1 133.4,123.9C133.6,123.7 133.8,123.5 133.9,123.4C134.1,123.2 134.3,123 134.5,122.9C134.9,122.6 135.3,122.2 135.8,121.9C136,121.8 136.3,121.6 136.5,121.5C136.7,121.4 137,121.2 137.2,121.1C137.4,121 137.7,120.9 138,120.7C138.3,120.6 138.5,120.5 138.8,120.4C139.1,120.3 139.3,120.2 139.6,120.1L140,119.9L141,119.7L141.4,119.7C141.6,119.7 141.9,119.6 142.1,119.6L143.9,119.6C144.5,119.6 145,119.7 145.6,119.8C145.9,119.9 146.1,119.9 146.4,120C146.5,120 146.7,120.1 146.8,120.1C146.9,120.1 147.1,120.2 147.2,120.2C147.5,120.3 147.8,120.4 148.1,120.5C148,120.4 147.9,120.4 147.8,120.3C147.6,120.1 147.4,120 147.2,119.9C147,119.8 146.8,119.6 146.6,119.5C146.4,119.4 146.2,119.2 146,119.1C145.8,119 145.6,118.8 145.4,118.7L145.2,118.6C145.1,118.6 145.1,118.5 145,118.5L144.7,118.3C144.5,118.2 144.3,118.1 144.1,117.9C143.7,117.6 143.3,117.4 142.9,117.2C141.2,116.3 139.4,115.5 137.7,114.8C135.9,114.1 134.2,113.6 132.7,113.1C131.9,112.9 131.2,112.7 130.5,112.5C129.8,112.3 129.2,112.2 128.8,112C128.6,111.9 128.3,111.9 128.1,111.8C127.9,111.7 127.7,111.7 127.6,111.7C127.3,111.6 127.2,111.6 127.2,111.6L127.3,111.5C127.4,111.5 127.5,111.4 127.6,111.3C127.7,111.2 127.9,111.1 128.1,111C128.3,110.9 128.5,110.8 128.7,110.7C129.2,110.5 129.8,110.2 130.5,110C131.2,109.8 132,109.5 132.9,109.4C134.7,109.1 136.9,108.9 139.2,109.3C140.4,109.5 141.5,109.7 142.7,110.1C143.9,110.5 145,111 146.2,111.6L147,112.1C147.3,112.3 147.5,112.5 147.8,112.6C148.1,112.8 148.3,113 148.6,113.2L149,113.5L149.4,113.7L149.7,114L149.9,114.1L150.1,114.3C150.3,114.5 150.5,114.7 150.8,114.9C151,115.1 151.2,115.3 151.4,115.6C151.6,115.8 151.8,116 152,116.3C152.2,116.5 152.4,116.8 152.5,117C152.6,117.1 152.7,117.3 152.8,117.4L152.8,117.3C152.7,117 152.6,116.6 152.5,116.3C152.3,115.6 152,115 151.8,114.3L151.8,114.2L151.5,113.3C151.5,113.2 151.4,113.1 151.4,113.1L151.3,112.9C151.2,112.8 151.2,112.6 151.1,112.5C151,112.3 151,112.2 150.9,112C150.8,111.8 150.8,111.7 150.7,111.5C150.6,111.3 150.6,111.2 150.5,111C150.5,110.9 150.4,110.8 150.4,110.8L150.3,110.6C150.2,110.4 150.2,110.3 150.1,110.1C150.1,110 150,109.9 150,109.9C150,109.8 149.9,109.7 149.9,109.7C149.8,109.5 149.8,109.4 149.7,109.2C149.6,109.1 149.6,108.9 149.5,108.8C149.2,108.2 148.9,107.6 148.7,107.1C148.1,106 147.7,105 147.4,104.3C147.2,103.9 147.1,103.6 147,103.4C147,103.3 146.9,103.2 146.9,103.2L146.9,103.1L147.7,103.1C147.9,103.1 148,103.1 148.3,103.2C148.5,103.2 148.7,103.3 149,103.4C149.2,103.5 149.5,103.5 149.8,103.6C150.3,103.8 150.9,104 151.6,104.4C152.2,104.7 152.9,105.1 153.5,105.6C153.7,105.7 153.8,105.9 154,106C154.2,106.1 154.3,106.3 154.5,106.4C154.8,106.7 155.1,107 155.4,107.3C155.6,107.5 155.7,107.6 155.8,107.8C155.9,108 156.1,108.2 156.2,108.3C156.5,108.7 156.7,109.1 157,109.5C157.1,109.7 157.2,109.9 157.4,110.2L157.6,110.5C157.7,110.6 157.7,110.7 157.8,110.8L158.1,111.4L158.2,111.7L158.2,111.9L158.3,112.1C158.4,112.3 158.5,112.5 158.5,112.8C158.6,113 158.7,113.3 158.7,113.5C158.8,113.7 158.8,114 158.9,114.2L159,114.5C159,114.6 159,114.7 159.1,114.8C159.2,115.1 159.2,115.4 159.2,115.7C159.4,115.5 159.7,115.4 160,115.2C160.1,115.1 160.2,115.1 160.3,115L160.6,114.8L161.8,114.2C162,114.1 162.2,114 162.5,113.9L162.7,113.8L162.9,113.8L163.8,113.5C163.9,113.5 164,113.4 164.1,113.4L164.5,113.3C164.7,113.2 165,113.2 165.2,113.1C165.7,113 166.1,113 166.6,112.9L168,112.9C168.4,112.9 168.9,112.9 169.3,113C169.5,113 169.7,113 169.9,113.1C170.1,113.1 170.3,113.2 170.5,113.2C171.3,113.3 172,113.6 172.7,113.8C173.4,114.1 173.9,114.3 174.4,114.6C174.6,114.7 174.9,114.9 175.1,115C175.3,115.1 175.5,115.3 175.7,115.4C175.9,115.5 176,115.6 176.1,115.8L176.7,116.4L176.6,116.4C176.5,116.4 176.5,116.4 176.4,116.5C176.2,116.6 175.9,116.7 175.5,116.8C174.8,117 173.8,117.3 172.5,117.6C171.9,117.8 171.3,117.9 170.7,118.1C170.5,118.1 170.4,118.2 170.2,118.2C170,118.3 169.9,118.3 169.7,118.3C169.6,118.3 169.5,118.3 169.5,118.4C169.4,118.4 169.3,118.4 169.3,118.5C169.1,118.6 169,118.6 168.8,118.7L168.6,118.8C168.5,118.8 168.4,118.9 168.4,118.9C168.2,119 168.1,119 167.9,119.1C167.7,119.1 167.6,119.2 167.4,119.3C167.2,119.4 167.1,119.4 166.9,119.5C166.8,119.6 166.6,119.6 166.5,119.7L166.3,119.8L165.1,120.2L165,120.2C164.3,120.5 163.7,120.7 163,121C162.7,121.1 162.4,121.3 162,121.4L161.9,121.4C162.1,121.4 162.2,121.4 162.4,121.3C162.7,121.3 163,121.3 163.3,121.2L165.1,121.2C165.4,121.2 165.7,121.2 166,121.3L166.1,121.3C166,121.3 166.2,121.3 166.2,121.3L166.5,121.3L166.9,121.4L167.3,121.4L167.8,121.5C168.1,121.6 168.5,121.6 168.8,121.7C169.1,121.8 169.4,121.8 169.7,121.9L170.6,122.2C171.8,122.6 173,123.2 174,123.8C175.1,124.4 176.1,125.1 177,125.9C178.8,127.4 180.1,129.1 181.1,130.7C181.6,131.5 181.9,132.2 182.2,132.9C182.5,133.6 182.7,134.2 182.8,134.7C182.9,135 182.9,135.2 183,135.4C183,135.6 183.1,135.8 183.1,135.9L183.1,136.3C183.1,136.3 183,136.2 182.7,136.1C182.6,136 182.4,135.9 182.3,135.8C182.1,135.7 181.9,135.6 181.7,135.4C181.3,135.1 180.8,134.8 180.2,134.4C179.6,134 179,133.6 178.3,133.2C176.9,132.3 175.4,131.4 173.7,130.5C172,129.6 170.3,128.8 168.4,128.2C167.9,128 167.5,127.9 167,127.8C166.8,127.7 166.6,127.7 166.3,127.6L166,127.5L165.8,127.5L165.6,127.4C165.4,127.3 165.1,127.3 164.9,127.2C164.7,127.1 164.4,127.1 164.2,127C164,126.9 163.7,126.9 163.5,126.9C163.3,126.9 163,126.8 162.8,126.8C162.7,126.8 162.6,126.8 162.5,126.7C162.8,126.8 163.1,127 163.3,127.2C163.4,127.3 163.5,127.3 163.6,127.4C163.7,127.5 163.8,127.6 163.9,127.6C164.1,127.8 164.3,127.9 164.6,128.1C165,128.4 165.4,128.8 165.8,129.2L166.7,130.1L166.8,130.3L166.9,130.4L166.9,130.5C167,130.7 167.2,130.9 167.3,131.1L167.4,131.2C167.4,131.2 167.5,131.3 167.5,131.4L168.1,132.6C168.2,132.9 168.3,133.1 168.4,133.4C168.5,133.7 168.6,133.9 168.7,134.2C168.8,134.5 168.9,134.7 168.9,135C169,135.3 169,135.5 169.1,135.8C169.2,136.1 169.2,136.3 169.2,136.6C169.3,137.1 169.3,137.7 169.3,138.2L169.3,139C169.3,139.3 169.3,139.5 169.2,139.8C169.2,140 169.1,140.3 169.1,140.5C169.1,140.7 169,141 169,141.2C168.9,141.4 168.9,141.7 168.8,141.9C168.7,142.1 168.7,142.3 168.6,142.5C168.5,142.7 168.5,142.9 168.4,143.1C168.3,143.3 168.2,143.5 168.1,143.7C168,143.9 167.9,144.1 167.8,144.2C167.7,144.4 167.6,144.5 167.5,144.7C167.4,144.9 167.3,145 167.2,145.2C167.1,145.3 167,145.5 166.9,145.6C166.5,146.1 166.1,146.5 165.8,146.9C165.6,147.1 165.5,147.2 165.3,147.3C165.2,147.4 165,147.5 164.9,147.6C164.8,147.7 164.7,147.7 164.7,147.8C164.6,147.8 164.6,147.9 164.6,147.9L164.6,145.8C164.6,145.5 164.6,145.3 164.5,145L164.5,143.6C164.5,143.4 164.5,143.3 164.4,143.1C164.4,142.9 164.4,142.8 164.3,142.6C164.3,142.4 164.2,142.3 164.2,142.1C164.2,141.9 164.2,141.8 164.1,141.6C164.1,141.4 164,141.3 164,141.1C163.9,140.8 163.8,140.4 163.8,140.1C163.7,139.8 163.6,139.4 163.5,139.1C163.4,138.8 163.3,138.4 163.2,138.1C163.1,137.9 163.1,137.8 163,137.6C162.9,137.4 162.9,137.3 162.8,137.1C162.7,136.9 162.7,136.8 162.6,136.6C162.6,136.5 162.5,136.4 162.5,136.4C162.5,136.3 162.4,136.2 162.4,136.2C162.3,136 162.2,135.9 162.2,135.7L162,135.5C162,135.4 161.9,135.4 161.9,135.3L161.8,135.1C161.8,135.1 161.8,135 161.7,135L161.6,134.9C161.5,134.7 161.4,134.5 161.2,134.3L161.2,134.2L160.9,133.9C160.8,133.8 160.7,133.6 160.6,133.5C160.5,133.4 160.4,133.2 160.3,133.1L159.9,132.7C159.8,132.6 159.7,132.4 159.6,132.3L159.2,131.9C159.1,131.8 159,131.6 158.8,131.5L158.4,131.1C158.3,131 158.2,130.8 158,130.7C157.9,130.6 157.7,130.5 157.6,130.3C157.1,129.8 156.6,129.4 156.1,129C155.9,128.8 155.6,128.6 155.4,128.5C152.6,133.3 143.6,144.062 142.1,180.762C142.1,180.762 137.278,182.276 134.5,182.881C131.317,183.574 123.1,184.551 123.1,184.551C123.8,130.051 111.1,106.4 107.4,99.1C107.1,99.3 106.7,99.6 106.4,99.8C105.6,100.4 104.8,100.9 104,101.6C103.8,101.8 103.6,101.9 103.4,102.1C103.2,102.3 103,102.5 102.8,102.6L102.3,103.1C102.1,103.3 101.9,103.5 101.7,103.6L101.1,104.2C100.9,104.4 100.7,104.6 100.6,104.8C100.5,104.9 100.4,105 100.3,105.1L100.1,105.4C99.9,105.6 99.8,105.8 99.6,106C99.5,106.2 99.3,106.4 99.1,106.6L98.9,106.9L98.7,107.1C98.5,107.4 98.3,107.7 98.1,107.9L98,108.1C98,108.2 97.9,108.2 97.9,108.3L97.7,108.6C97.6,108.7 97.6,108.8 97.5,108.9L97.4,109L97.3,109.2C97.2,109.4 97,109.7 96.9,109.9C96.8,110 96.8,110.1 96.7,110.3C96.6,110.4 96.6,110.5 96.5,110.7C96.4,110.9 96.2,111.2 96.1,111.4C96,111.6 95.9,111.9 95.8,112.1C95.7,112.3 95.6,112.6 95.5,112.8C95.3,113.3 95.1,113.8 94.9,114.3C94.7,114.8 94.6,115.3 94.4,115.8C94.3,116.3 94.1,116.8 94,117.3C93.9,117.5 93.9,117.8 93.8,118C93.7,118.2 93.7,118.5 93.6,118.7C93.5,118.9 93.5,119.2 93.4,119.4C93.4,119.6 93.3,119.9 93.3,120.1C93.3,120.3 93.2,120.6 93.2,120.8C93.2,121 93.1,121.3 93.1,121.5C93.1,121.7 93,121.9 93,122.2C93,122.4 93,122.6 92.9,122.8C92.9,123.2 92.8,123.6 92.8,124C92.8,124.4 92.7,124.7 92.7,125C92.6,125.6 92.6,126.1 92.6,126.5L92.6,127L92.5,126.9C92.4,126.8 92.3,126.8 92.2,126.6C92.1,126.5 91.9,126.3 91.7,126.2C91.5,126 91.3,125.8 91,125.6C90.5,125.1 90,124.5 89.5,123.7C89.4,123.5 89.2,123.3 89.1,123.1C89,122.9 88.9,122.7 88.7,122.4C88.6,122.2 88.4,121.9 88.3,121.7C88.2,121.4 88.1,121.2 88,120.9L87.4,119.1C87.3,118.8 87.2,118.5 87.1,118.1C87,117.8 87,117.4 86.9,117.1C86.8,116.8 86.8,116.4 86.8,116.1C86.8,115.7 86.7,115.4 86.7,115L86.7,112.8C86.8,112 86.8,111.2 87,110.5C87.1,110.1 87.1,109.7 87.3,109.3C87.4,108.9 87.5,108.5 87.6,108.1C87.7,107.7 87.9,107.3 88,106.9C88.2,106.5 88.3,106.1 88.5,105.7C88.7,105.3 88.9,104.9 89.1,104.6L89.2,104.3L90.2,102.8C90.3,102.7 90.3,102.6 90.4,102.5L90.6,102.3C90.8,102 91,101.8 91.2,101.5L91.3,101.4L91.4,101.2L91.7,100.9L92.1,100.4C92.4,100.1 92.7,99.8 93,99.5C93.6,99 94.2,98.4 94.9,97.9C95.2,97.7 95.6,97.5 95.9,97.2C96.1,97.1 96.2,97 96.4,96.9C96.6,96.8 96.7,96.7 96.9,96.6C97.3,96.4 97.7,96.2 98.2,96C98,96 97.9,96 97.7,96.1C97.4,96.1 97,96.2 96.7,96.3C96.4,96.4 96,96.4 95.7,96.5C95.4,96.6 95,96.6 94.7,96.7C94.3,96.8 94,96.8 93.6,96.9L93.3,97C93.2,97 93.1,97 93,97.1L92.5,97.2C92.2,97.3 91.9,97.3 91.5,97.4C90.8,97.6 90.1,97.8 89.5,98C86.8,98.8 84.1,99.8 81.6,101C79.1,102.1 76.7,103.4 74.7,104.5C73.7,105.1 72.7,105.6 71.8,106.1C70.9,106.6 70.2,107.1 69.5,107.4C69.2,107.6 68.9,107.8 68.6,107.9C68.3,108.1 68.1,108.2 67.9,108.3C67.5,108.5 67.3,108.6 67.3,108.6C67.3,108.6 67.5,108.6 67.5,108.5Z" style="fill-rule:nonzero;"/>
    </g>
</svg>
